<?xml version="1.0" encoding="utf-8"?>
<!-- Generator: Adobe Illustrator 28.0.0, SVG Export Plug-In . SVG Version: 6.00 Build 0)  -->
<svg version="1.1" id="Layer_1" xmlns="http://www.w3.org/2000/svg" xmlns:xlink="http://www.w3.org/1999/xlink" x="0px" y="0px"
	 viewBox="0 0 231 282" style="enable-background:new 0 0 231 282;" xml:space="preserve">
<style type="text/css">
	.st0{clip-path:url(#SVGID_00000099642522773971147450000016348147886929142429_);}
	.st1{fill:#1D1E1B;}
</style>
<g>
	<defs>
		<rect id="SVGID_1_" x="2.1" y="2.6" width="226.8" height="276.8"/>
	</defs>
	<clipPath id="SVGID_00000072263332912320281050000007173434378980258732_">
		<use xlink:href="#SVGID_1_"  style="overflow:visible;"/>
	</clipPath>
	<g style="clip-path:url(#SVGID_00000072263332912320281050000007173434378980258732_);">
		<path class="st1" d="M222.8,95.3c-4.1-14.3-9.9-28.2-18.1-40.7c-8-12.2-17.8-23.4-29.5-32.1C163.2,13.7,149.6,7.2,135,4.3
			c-14.5-2.8-29.5-2.3-43.7,1.8C76.5,10.3,62.8,17.9,51,27.9C39.8,37.4,30.2,49.2,22.8,62c-7.4,12.9-12.7,26.7-16.2,41.1
			c-3.5,14.6-4.9,29.6-4.4,44.6c0.5,14.6,2.8,29.4,7.3,43.3c4.5,14,10.8,27.4,19.3,39.5c8.5,12.2,19.1,23.1,31.4,31.4
			c12.4,8.3,25.9,13.6,40.5,16.2c6.4,1.1,12.8,1.4,19.3,1.2c8.4-0.3,16.9-1,25.2-2.7c14.9-3,29.4-8.5,41.9-17.3
			c12.1-8.6,21.8-20.5,27-34.4c5.1-13.7,7.2-29.8,2.9-44c-4.3-14.3-13.4-26.7-23.4-37.6c-9.9-10.8-21.3-20.4-33-29.2
			c-6-4.6-12.2-9-18.5-13.2c-2.9-2-5.8-4-8.8-5.9c-3.1-2.1-6.3-3.9-8.7-6.5c-2.4-2.7-4.7-6.9-3.2-12c0.2-0.5,1-3,2.3-4
			c0.2-0.2,0.6-0.2,0.9-0.2c1.6,0.3,2.4,0.6,4.2,1.5c1.6,0.9,3.4,2.6,5.3,2.9c1,0.1,2.3-0.1,3.2-0.2c1.5-0.2,2.8-1,3.5-2.4
			c0.5-0.9,1.1-1.8,1.4-2.8c0.3-1,0.4-2.2,0.6-3.2c0.2-1,0.3-2.2,0.6-3.2c0,0,0.2-1.4,2.5-1.8c0.6-0.1,1.5,0.1,2.1,0.2
			c0,0,2.8,0.5,4.9,3.5c1.5,2.2,1.3,3.7,1.2,6.1c-0.1,1.3-1,2.5-2.2,2.8c-2.2,0.7-2.9,0.4-3.7,0.4c-1.2,0-2.5,0.1-3.6,0.6
			c-2.5,1.2-4.4,2.6-4.2,3.4c0.7,2.9,1.8,5.4,3.5,8c1.6,2.5,3.6,4.9,5.8,6.8c4.7,4.1,10.5,6.7,16.9,6.4c4-0.2,7.4-1.7,10.9-3.6
			c0.3-0.2,1.9-1.2,1.4-1.7c-4-4.4-8-9-11.2-14.1c-0.9-1.4-1.6-2.8-2.2-4.4c-0.4-1.1-0.6-2.5-0.5-4c0.1-1.8,0.4-3.3,0.2-5.1
			c-0.2-1.4-0.5-2.8-1-4.1c-3.9-11.3-14.3-19.6-25.8-22.1c-6.1-1.4-12.4-1.6-18.3,0.5c-6.4,2.2-12.1,6.1-16.4,11.3
			C95.8,63.3,91,75.8,93.1,88.1c1,6.1,3.7,11.7,7.2,16.7c3.6,5.1,8.2,8.7,13.2,12.5c9.6,7.3,18.3,14.7,27,23.2
			c8.4,8.3,16.6,17.5,22,28.1c1.4,2.7,2.6,5.4,3.4,8.3c0.9,3,1.4,5.6,1.6,8.6c0.2,3,0.2,6.1-0.6,8.9c-1.2,3.8-3.5,7.3-5.3,9
			c0,0-0.1,0.1-0.1,0.1c0,0,0,0,0,0c-6.3-7.9-14.8-14.4-23.9-18.6c-9.3-4.3-20.8-6.7-30.4-2.3c-4.9,2.2-7.9,7.7-6.2,13.1
			c1.5,4.8,4.8,8.7,8.7,11.7c4,3,8.7,5.1,13.6,5.7c5,0.7,10.5,0.4,15.5-0.1c7.2-0.7,14-2.3,20.2-5.9c1.3,1.8,2.4,3.6,3.4,5.5
			c0.9,1.8,1.3,2.9,1.6,4.8c0.4,2-0.2,4.5-1.2,6.4c-2.4,4.4-7.6,6.7-7.8,6.8c-4,2-7.7,3.2-9.9,3.9c-1.3,0.4-5.2,1.2-6.2,1.4
			c-2,0.4-4,0.6-6,0.9c-2.5,0.3-3.3,0.3-5.7,0.4c-2,0.1-4,0.1-6,0c-4-0.1-7.9-0.4-11.9-1c-3.8-0.5-7.4-1.3-11.3-2.5
			c-3.4-1-6.7-2.2-9.9-3.6c-6.8-3-13.2-6.7-19.4-10.7c-6.3-4.1-12.2-8.7-18-13.4c-1.1-0.9-2.7-2.2-4-3.4c-1.4-1.2-2.7-2.4-4.1-3.6
			c-2.8-2.6-5.7-5.2-8.4-8c-1-1-1.9-2-2.9-3c1.1-0.3,2.2-0.5,3.2-0.7c2.5-0.5,5.1-1.1,7.6-1.5c2.2-0.4,4.5-0.7,6.7-1
			c1.3-0.1,4.5-0.4,4.8-0.5c1.5,1.6,3,3.2,4.6,4.8c4.2,4.2,8.4,8.4,13.9,10.7c4.9,2.1,11.1,2.4,16.3,1.5c2.8-0.5,6.9-1.7,8.7-3.9
			c1.6-2,1.7-4.4,0.2-6.4c-3.4-4.6-9-6.1-13.9-7.3c-3.8-1-7.6-1.7-11.4-2c-5.1-0.4-10.2-0.3-15.3,0c-5.5-5.9-10.7-12.2-15.9-18.4
			c-3.6-4.3-7.1-8.7-10.5-13.1c6.5,0.5,12.9,1.1,19.4,1.9c0.8,0.9,1.6,1.9,2.4,2.8c4.3,4.5,9.8,8.3,15.4,11.1
			c5.9,3,11.9,5.4,18.4,6.6c3.3,0.6,6.5,0.8,9.9,0.3c1.7-0.2,3.7-1,5.1-1.9c1.1-0.7,2.7-2.3,2.7-4.2c-0.1-3.1-3.3-5.6-6-7
			c-2.9-1.5-5.9-2.6-9-3.5c-6.1-1.8-12.4-3-18.7-4.1c-5.5-0.9-11-1.7-16.5-2.3c-6-7.5-10.1-16.8-12.4-26.2
			c-1.5-6.3-2.3-12.8-2.6-19.4c10.3,6.1,78.5,46.8,85.1,50.7c1,0.6,4.3-1.8,3.3-2.4c-11.4-7-82.3-49.1-88.8-52.9
			c-0.9-0.5-3.5,1.1-3.5,2c0.1,12.9,2.1,25.9,7.4,37.7c1.5,3.4,3.4,6.7,5.6,9.8c-5-0.5-18.1-1.7-19.6-1.8c-0.6,0-3.9,1.4-3.2,2.3
			c7.1,9.2,14.3,18.3,22,26.9c1.7,1.9,3.4,3.8,5.1,5.7c-6.4,0.7-12.8,1.9-19.1,3.5c-1.3,0.3-2.5,0.7-3.8,1c-0.4,0.1-3.1,1.5-2.4,2.2
			c6.9,7.2,14.1,14,21.8,20.3c7.4,6,15.1,11.7,23.3,16.6c8.2,4.8,16.9,9.1,26.1,11.3c10,2.4,20.5,3.4,30.8,2.4
			c10.4-1,21.4-3.3,30.2-9.3c4.4-3,9-7.3,9.2-13c0.1-4.3-2.8-8.9-5.5-12.4c1.1-0.9,2.2-1.8,3.3-2.9c7-7.2,6.5-18.6,3.8-27.6
			c-2.9-9.5-9-18.1-15.5-25.5c-6.6-7.6-13.7-14.5-21.3-21.1c-3.8-3.3-7.7-6.4-11.6-9.6c-3.9-3.1-8.5-6.2-11.8-9.4
			c-7.5-7.4-12.3-17-12.9-27.3c-0.3-5.2,1.2-10.6,2.7-15c2.3-6.5,9.1-14.7,11.5-16.9c2.3-2,5.4-3.7,6.3-4c5.1-2.2,10.6-2.1,11-2.1
			c1.4,0,2.8,0.2,4.3,0.4c2,0.3,4.6,0.9,7,1.7c2.5,0.9,4.9,2.1,7.3,3.5c4.5,2.6,7.8,5.8,10.7,10.1c2.6,4,4.7,8.8,4.6,13.4
			c0,1.3-0.4,2.4-0.3,3.7c0.1,1.2,0.2,2.1,0.6,3.2c0.5,1.5,1.3,2.9,2.1,4.3c3,4.9,6.8,9.3,10.7,13.6c0,0-1.2,0.5-2.8,1
			c-2.5,0.7-5.9,0.3-6.6,0.2c-2-0.4-2.7-0.6-4.7-1.3c-5.5-2-9.5-6.1-12.8-10.8c-1.7-2.4-2.8-4.8-3.5-7.6c0.2,0,0.8-0.2,1.7-0.3
			c2.1-0.2,3.8-0.2,5.9-0.8c3.9-1.2,6.2-5.6,5.9-9.4c-0.3-3.5-3.2-6.4-6.5-7.4c-1.8-0.5-3.7-0.5-5.5,0c-1,0.3-2.1,0.5-3.1,1
			c-1.2,0.7-1.6,1.6-2.2,2.7c-0.8,1.6-1.3,3.3-1.6,5c-0.4,3.1-1,4.1-1.2,4.6c-0.3,0-1.2-0.3-1.6-0.4c-0.6-0.2-1.2-0.5-1.7-0.8
			c-1.7-1-3.2-2.2-5.1-2.9c-1.9-0.7-4-0.5-5.7,0.4c-1.2,0.6-3.3,1.8-4.6,4.2c-1.7,3.1-2.4,7.1-1.4,10.5c1,3.4,3.8,6.3,6.6,8.3
			c12.2,8.5,24.7,16.5,36.5,25.7c11.6,9.1,23.1,18.9,32.8,30.4c9.6,11.3,18.6,24.7,21.1,39.2c1.3,7.4,0.8,15.1-0.4,22.4
			c-1.2,7.6-3.2,14.2-6.5,21c-1.7,3.5-3.7,6.7-5.9,9.9c0,0-2.7,3.5-3.3,4.2c-2.6,3.1-7.5,8.1-13.6,12.2c-10.6,7.1-14.9,8.6-16.7,9.4
			c-5,2.3-20.1,6-21.1,6.3c-6,1.5-15.8,2.1-15.9,2.2c-1.9,0.1-3.8,0.3-5.8,0.4c-3.9,0.2-7.7,0.2-11.6,0c-7.6-0.3-14.6-1.5-21.6-3.5
			c-7.3-2.1-14.2-5-20.9-8.7c-6.3-3.5-12.9-7.9-18-12.5c-11.2-10-20.6-21.4-28-34.5c-7.4-13.1-12.7-27.2-15.9-41.9
			C6.6,161.4,5.3,146,6.1,131c0.8-14.9,3.5-29.9,8.4-44.1c0,0,3.3-8.6,4-10.3c1.4-3.4,3-6.7,4.7-10c1.7-3.3,3.5-6.5,5.5-9.7
			c1.1-1.7,2.2-3.3,3.3-4.9c0.5-0.8,2.8-3.9,3.2-4.5c2.2-2.9,7.2-9.2,14.6-16.2c1.3-1.2,5.4-5.4,11.7-9.5c1.2-0.8,6.5-5.5,20.5-10.9
			c1.8-0.7,11-4.7,26.4-5.8c15.1-1,29.4,1.7,43.2,7.8c13.8,6.1,25.6,15.1,35.7,25.9c10.2,10.9,18.4,23.8,24.4,37.5
			c6.2,14,10.1,28.9,12.1,43.8c1,7.1,1.4,14.3,1.3,21.5c0,1.1,3.7-0.5,3.7-1.7C229,125,227,109.8,222.8,95.3L222.8,95.3z
			 M145.5,210.1c-7.5,1.3-15.7,0.9-17,0.8c-2.1-0.1-2.9-0.3-4.8-0.7c-2.9-0.6-5.7-2-8.2-3.5c-4.7-2.8-9.7-7.6-11-13.5
			c-1.2-5.5,2.3-9.7,9.6-10.2c0,0,0.1,0,0.1,0c4.2-0.2,7.9,0.2,11.6,1.2c7.7,2.1,14.8,6,21.1,10.8c4,3,7.9,6.7,11.1,10.9
			C158,206.1,155.6,208.3,145.5,210.1z M70.8,184.6c4.7,0.5,9.3,1.3,14,3.4c2.4,1.1,9.1,3.8,9.8,7.3c0.2,1.2-0.6,2.9-2.4,3.5
			c-2.2,0.7-4.6,0.6-6.2,0.6c-4.9,0-9.9-1.1-14.2-3.6c-2.7-1.6-4.7-3.5-7-5.7c-2-1.9-3.9-3.8-5.8-5.8
			C62.9,184.1,66.8,184.2,70.8,184.6L70.8,184.6z M72.7,155.8c2.7,0.5,5.1,1,8.1,1.7c2.8,0.7,5.5,1.5,8.2,2.4c2.8,1,5.5,2.2,7.9,4
			c1.5,1.1,4,4.4,1.7,6c-1.7,1.2-7,0.7-7.8,0.6c-3.4-0.4-6.3-1.2-9.7-2.4c-6.6-2.3-12.8-5.6-18.6-9.7c-2.3-1.6-4.3-3.4-6.2-5.4
			C56.6,153.2,67.6,154.9,72.7,155.8z M116.8,45.6C116.6,45.7,116.6,45.7,116.8,45.6L116.8,45.6z"/>
		<path class="st1" d="M217,180.9c-4.3-14.3-13.4-26.7-23.4-37.6c-9.9-10.8-21.3-20.4-33-29.2c-6-4.6-12.2-9-18.5-13.2
			c-2.9-2-5.9-4-8.8-5.9c-3.1-2.1-6.3-3.9-8.7-6.5c-2.4-2.7-4.7-6.9-3.2-12c0.2-0.5,1-3,2.3-4c0.2-0.2,0.6-0.2,0.9-0.2
			c1.6,0.3,2.4,0.6,4.2,1.5c1.6,0.9,3.4,2.6,5.3,2.9c1,0.1,2.3-0.1,3.2-0.2c1.5-0.2,2.8-1,3.5-2.4c0.5-0.9,1.1-1.8,1.4-2.8
			c0.3-1,0.4-2.2,0.6-3.2c0.2-1,0.3-2.2,0.6-3.2c0,0,0.2-1.4,2.5-1.8c0.6-0.1,1.5,0.1,2.1,0.2c0,0,2.8,0.5,4.9,3.5
			c1.5,2.2,1.3,3.7,1.2,6.1c-0.1,1.3-1,2.5-2.2,2.8c-2.2,0.7-2.9,0.4-3.7,0.4c-1.2,0-2.5,0.1-3.6,0.6c-2.5,1.2-4.4,2.6-4.2,3.4
			c0.7,2.9,1.8,5.4,3.5,8c1.6,2.5,3.6,4.9,5.9,6.8c4.7,4.1,10.5,6.7,16.9,6.4c4-0.2,7.4-1.7,10.9-3.6c0.3-0.2,1.9-1.2,1.4-1.7
			c-4-4.4-8-9-11.2-14.1c-0.9-1.4-1.6-2.8-2.2-4.4c-0.4-1.1-0.6-2.5-0.5-4c0.1-1.8,0.4-3.3,0.2-5.1c-0.2-1.4-0.5-2.8-1-4.1
			c-3.9-11.3-14.3-19.6-25.8-22.1c-6.1-1.4-12.4-1.6-18.3,0.5c-6.4,2.2-12.1,6.1-16.4,11.3C95.7,63.3,91,75.8,93.1,88.1
			c1,6.1,3.7,11.7,7.2,16.7c3.6,5.1,8.2,8.7,13.2,12.5c9.6,7.3,18.3,14.7,27,23.2c8.4,8.3,16.6,17.5,22,28.1
			c1.4,2.7,2.6,5.4,3.4,8.3c0.9,3,1.4,5.6,1.6,8.6c0.2,3,0.2,6.1-0.6,8.9c-1.2,3.8-3.5,7.3-5.3,9c0,0-0.1,0.1-0.1,0.1c0,0,0,0,0,0
			c-6.3-7.9-14.8-14.4-23.9-18.6c-9.3-4.3-20.8-6.7-30.4-2.3c-4.9,2.2-7.9,7.7-6.2,13.1c1.5,4.8,4.8,8.7,8.7,11.7
			c4,3,8.7,5.1,13.6,5.7c5,0.7,10.5,0.4,15.5-0.1c7.2-0.7,14-2.3,20.2-5.9c1.3,1.8,2.4,3.6,3.4,5.5c0.9,1.8,1.3,2.9,1.6,4.8
			c0.4,2-0.2,4.5-1.2,6.4c-2.4,4.4-7.6,6.7-7.8,6.8c-4,2-7.7,3.2-9.9,3.9c-1.3,0.4-5.2,1.2-6.2,1.4c-2,0.4-4,0.7-6,0.9
			c-2.5,0.3-3.3,0.3-5.7,0.4c-2,0.1-4,0.1-6,0c-4-0.1-7.9-0.4-11.9-1c-3.8-0.5-7.4-1.3-11.3-2.5c-3.4-1-6.7-2.2-9.9-3.6
			c-6.8-3-13.2-6.7-19.4-10.7c-6.3-4.1-12.2-8.7-18-13.4c-1.1-0.9-2.7-2.2-4-3.4c-1.4-1.2-2.7-2.4-4.1-3.6c-2.8-2.6-5.7-5.2-8.4-8
			c-1-1-1.9-2-2.9-3c1.1-0.3,2.2-0.5,3.2-0.7c2.5-0.5,5.1-1.1,7.6-1.5c2.2-0.4,4.5-0.7,6.7-1c1.3-0.1,4.5-0.4,4.8-0.5
			c1.5,1.6,3,3.2,4.6,4.8c4.2,4.2,8.4,8.4,13.9,10.7c4.9,2.1,11.1,2.4,16.3,1.5c2.8-0.5,6.9-1.7,8.7-3.9c1.6-2,1.7-4.4,0.2-6.4
			c-3.4-4.6-9-6.1-13.9-7.3c-3.8-1-7.6-1.7-11.4-2c-5.1-0.4-10.2-0.3-15.3,0c-5.5-5.9-10.7-12.2-15.9-18.4
			c-3.6-4.3-7.1-8.7-10.5-13.1c6.5,0.5,12.9,1.1,19.4,1.9c0.8,0.9,1.6,1.9,2.4,2.8c4.3,4.5,9.8,8.3,15.4,11.1
			c5.9,3,11.9,5.4,18.4,6.6c3.3,0.6,6.5,0.8,9.9,0.3c1.7-0.2,3.7-1,5.1-1.9c1.1-0.7,2.7-2.3,2.7-4.2c-0.1-3.1-3.3-5.6-6-7
			c-2.9-1.5-5.9-2.6-9-3.5c-6.1-1.8-12.4-3-18.7-4.1c-5.5-0.9-11-1.7-16.5-2.3c-6-7.5-10.1-16.8-12.4-26.2
			c-1.5-6.3-2.3-12.8-2.6-19.4c10.3,6.1,78.5,46.8,85.1,50.7c1,0.6,4.3-1.8,3.3-2.4c-11.4-7-82.3-49.1-88.8-52.9
			c-0.9-0.5-3.5,1.1-3.5,2c0.1,12.9,2.1,25.9,7.4,37.7c1.5,3.4,3.4,6.7,5.6,9.8c-5-0.5-18.1-1.7-19.6-1.8c-0.6,0-3.9,1.4-3.2,2.3
			c7.1,9.2,14.3,18.3,22,26.9c1.7,1.9,3.4,3.8,5.1,5.7c-6.4,0.7-12.8,2-19.1,3.5c-1.3,0.3-2.5,0.7-3.8,1c-0.4,0.1-3.1,1.5-2.4,2.2
			c6.9,7.2,14.1,14,21.8,20.3c7.4,6,15.1,11.7,23.3,16.6c8.2,4.8,16.9,9.1,26.1,11.3c10,2.4,20.5,3.4,30.8,2.4
			c10.4-1,21.4-3.3,30.2-9.3c4.4-3,9-7.3,9.2-13c0.1-4.3-2.8-8.9-5.5-12.4c1.1-0.9,2.2-1.8,3.3-2.9c7-7.2,6.5-18.6,3.8-27.6
			c-2.9-9.5-9-18.1-15.5-25.5c-6.6-7.6-13.7-14.5-21.3-21.1c-3.8-3.3-7.7-6.4-11.6-9.6c-3.9-3.1-8.5-6.2-11.8-9.4
			c-7.5-7.4-12.3-17-12.9-27.3c-0.3-5.2,1.2-10.6,2.7-15c2.3-6.5,9.1-14.7,11.5-16.9c2.3-2,5.4-3.7,6.3-4c5.1-2.2,10.6-2.1,11-2.1
			c1.4,0,2.8,0.2,4.3,0.4c2,0.3,4.6,0.9,7,1.7c2.5,0.9,4.9,2.1,7.3,3.5c4.5,2.6,7.8,5.8,10.7,10.1c2.6,4,4.7,8.8,4.6,13.4
			c0,1.3-0.4,2.4-0.3,3.7c0.1,1.2,0.2,2.1,0.6,3.2c0.5,1.5,1.3,2.9,2.1,4.3c3,4.9,6.8,9.3,10.7,13.6c0,0-1.2,0.5-2.8,1
			c-2.5,0.7-5.9,0.3-6.6,0.2c-2-0.4-2.7-0.6-4.7-1.3c-5.5-2-9.5-6.1-12.8-10.8c-1.7-2.4-2.8-4.8-3.5-7.6c0.2,0,0.8-0.2,1.7-0.3
			c2.1-0.2,3.8-0.2,5.9-0.8c3.9-1.2,6.2-5.6,5.9-9.4c-0.3-3.5-3.2-6.4-6.5-7.4c-1.8-0.5-3.7-0.5-5.5,0c-1,0.3-2.1,0.5-3.1,1
			c-1.2,0.7-1.6,1.6-2.2,2.7c-0.8,1.6-1.3,3.3-1.6,5c-0.4,3.1-1,4.1-1.2,4.6c-0.3,0-1.2-0.3-1.6-0.4c-0.6-0.2-1.2-0.5-1.7-0.8
			c-1.7-1-3.2-2.2-5.1-2.9c-1.9-0.7-4-0.5-5.7,0.4c-1.2,0.6-3.3,1.8-4.6,4.2c-1.7,3.1-2.4,7.1-1.4,10.5c1,3.4,3.8,6.3,6.6,8.3
			c12.2,8.5,24.7,16.5,36.5,25.7c11.6,9.1,23.1,18.9,32.8,30.4c9.6,11.3,18.6,24.7,21.1,39.2c1.3,7.4,0.8,15.1-0.4,22.4
			c-1.2,7.6-3.2,14.2-6.5,21c-1.7,3.5-3.7,6.7-5.9,9.9c0,0-2.7,3.5-3.3,4.2c-2.6,3.1-7.5,8.1-13.6,12.2c-10.6,7.1-14.9,8.6-16.7,9.4
			c-5,2.3-20.1,6-21.1,6.3c-6,1.5-15.8,2.1-15.9,2.2c-1.9,0.1-3.8,0.3-5.8,0.4c-1.6,0.1-3.3,0.1-4.9,0.1v2.5
			c8.2-0.3,16.5-1,24.5-2.7c14.9-3,29.4-8.5,41.9-17.3c12.1-8.6,21.8-20.5,27-34.4C219.3,211.2,221.3,195.1,217,180.9L217,180.9z
			 M145.5,210.1c-7.5,1.3-15.7,0.9-17,0.8c-2.1-0.1-2.9-0.3-4.8-0.7c-2.9-0.6-5.7-2-8.2-3.5c-4.7-2.8-9.7-7.6-11-13.5
			c-1.2-5.5,2.3-9.7,9.6-10.2c0,0,0.1,0,0.1,0c4.2-0.2,7.9,0.2,11.6,1.2c7.7,2.1,14.8,6,21.1,10.8c4,3,7.9,6.7,11.1,10.9
			C158,206.1,155.6,208.3,145.5,210.1z M70.8,184.6c4.7,0.5,9.3,1.3,14,3.4c2.4,1.1,9.1,3.8,9.8,7.3c0.2,1.2-0.6,2.9-2.4,3.5
			c-2.2,0.7-4.6,0.6-6.2,0.6c-4.9,0-9.9-1.1-14.2-3.6c-2.7-1.6-4.7-3.5-7-5.7c-2-1.9-3.9-3.8-5.8-5.8
			C62.8,184.1,66.8,184.2,70.8,184.6L70.8,184.6z M72.7,155.8c2.7,0.5,5.1,1,8.1,1.7c2.8,0.7,5.5,1.5,8.2,2.4c2.8,1,5.5,2.2,7.9,4
			c1.5,1.1,4,4.4,1.7,6c-1.7,1.2-7,0.7-7.8,0.6c-3.4-0.4-6.3-1.2-9.7-2.4c-6.6-2.3-12.8-5.6-18.6-9.7c-2.3-1.6-4.3-3.4-6.2-5.4
			C56.5,153.2,67.6,154.9,72.7,155.8z"/>
	</g>
</g>
</svg>
