<svg xmlns="http://www.w3.org/2000/svg" id="a" viewBox="0 0 147.5 45.35"><defs><style>.b{stroke-width:0}</style></defs><path d="M15.27 35.51c-.84 0-1.42-.28-1.76-.83-.33-.55-.59-1.63-.75-3.24-1.34 1.17-2.4 2.04-3.19 2.61-.79.57-1.5.95-2.13 1.16-.64.2-1.37.3-2.21.3-1.54 0-2.8-.51-3.77-1.53C.49 32.96 0 31.63 0 29.99s.42-2.91 1.26-4.02c.84-1.1 2.18-2.07 4.04-2.89 1.86-.82 4.34-1.55 7.46-2.18v-2.36c0-1.77-.28-3.04-.85-3.79S10.37 13.62 9 13.62c-1.14 0-2.03.26-2.69.78-.65.52-.98 1.25-.98 2.18v1.96c0 .57-.18.97-.53 1.21-.35.23-.95.35-1.78.35-.64 0-1.09-.17-1.36-.5-.27-.33-.4-.87-.4-1.61 0-1.77.7-3.2 2.11-4.27 1.41-1.07 3.3-1.61 5.68-1.61 2.85 0 4.89.67 6.13 2.01.57.64.96 1.42 1.18 2.36.22.94.33 2.41.33 4.42v8.59c0 .87.02 1.57.05 2.11.03.54.1.85.2.95.1.1.3.15.6.15.23 0 .45-.05.65-.15.2-.1.57-.35 1.11-.75l.45.95c-1.31 1.17-2.23 1.93-2.76 2.26-.54.33-1.11.5-1.71.5Zm-11.2-6.83c0 1.14.33 2.03.98 2.69.65.65 1.51.98 2.59.98.8 0 1.55-.16 2.24-.48.69-.32 1.65-.93 2.89-1.83v-7.73c-3.08.84-5.3 1.75-6.66 2.74-1.36.99-2.03 2.2-2.03 3.64ZM36.62 12.51c1.61 0 3.05.44 4.32 1.33 1.27.89 2.27 2.12 2.99 3.69.72 1.57 1.08 3.35 1.08 5.32 0 2.28-.43 4.35-1.31 6.23-.87 1.87-2.07 3.36-3.59 4.44a8.478 8.478 0 0 1-5.05 1.63c-1.07 0-2.03-.18-2.86-.53s-1.81-1-2.91-1.93v7.03c0 1.61.06 2.67.18 3.19s.42.85.9.98c.49.13 1.48.22 2.99.25v1.21h-11.8v-1.21c1.44-.03 2.39-.12 2.84-.25.45-.13.73-.45.83-.95s.15-1.57.15-3.21V18.89c0-1.34-.18-2.24-.53-2.69s-1.05-.68-2.08-.68h-.9v-1.21l2.91-.95c.7-.23 1.74-.74 3.11-1.51h1.41v4.72c1.67-1.67 2.97-2.77 3.89-3.29.92-.52 2.07-.78 3.44-.78ZM34.91 33.1c1.77 0 3.21-.76 4.32-2.29s1.66-3.51 1.66-5.95c0-1.77-.28-3.36-.83-4.75-.55-1.39-1.32-2.48-2.31-3.26-.99-.79-2.1-1.18-3.34-1.18-.94 0-1.74.18-2.41.55s-1.57 1.09-2.71 2.16v11.45c.8 1.1 1.66 1.93 2.56 2.46.9.54 1.93.8 3.06.8ZM55.65 26.62c0 1.71.03 2.82.1 3.34s.22.96.45 1.33c.17.23.42.43.75.58.33.15.67.23 1 .23.44 0 .88-.09 1.33-.28.45-.18 1-.51 1.63-.98l.75.85c-1.14 1.34-2.12 2.27-2.94 2.79-.82.52-1.73.78-2.74.78-.77 0-1.47-.18-2.11-.53-.64-.35-1.1-.81-1.41-1.38s-.5-1.21-.6-1.93c-.1-.72-.15-1.9-.15-3.54V14.52h-3.16v-1.06c1.64-.64 2.88-1.51 3.72-2.61s1.54-2.8 2.11-5.07h1.26v6.88h5.27v1.86h-5.27v12.1ZM73.27 32.14c0 .97-.26 1.74-.78 2.31-.52.57-1.2.85-2.03.85-.74 0-1.34-.27-1.81-.8s-.7-1.22-.7-2.06c0-.97.25-1.75.75-2.34.5-.59 1.17-.88 2.01-.88.77 0 1.39.26 1.86.78s.7 1.23.7 2.13ZM114.56 10.7c0 7.03-5.17 10.85-16.02 17.38h16.52l-.6 6.88H88.59v-6.68l11.95-9.09c3.82-2.91 5.78-5.47 5.78-8.34 0-2.61-2.06-4.52-4.67-4.52-3.42 0-5.53 2.41-5.93 6.63l-7.13-1.61C90.05 4.07 94.67 0 102.15 0s12.41 4.97 12.41 10.7ZM137.96.5v28.23h9.54v6.23h-27.88v-6.23h10.45V9.29l-9.59 5.12V7.38c6.43-1.86 9.84-4.07 11.65-6.88h5.83Z" class="b"/></svg>